<svg id="Layer_1" enable-background="new 0 0 512 512" height="512" viewBox="0 0 512 512" width="512" xmlns="http://www.w3.org/2000/svg"><g><g id="XMLID_90_"><g id="XMLID_106_"><g id="XMLID_107_"><g id="XMLID_108_"><g id="XMLID_109_"><g id="XMLID_110_"><g id="XMLID_111_"><g id="XMLID_112_"><g id="XMLID_113_"><g id="XMLID_114_"><g id="XMLID_115_"><g id="XMLID_116_"><g id="XMLID_117_"><g id="XMLID_118_"><circle id="XMLID_119_" cx="256" cy="256" fill="#14c4a2" r="256"/></g></g></g></g></g></g></g></g></g></g></g></g></g></g><path d="m511.791 265.905-93.427-93.646-215.114-53.009-36.634-33.799-80.604 140.407 107.104 105.358-54.876-44.526-39.206 52.16 172.657 172.657c130.807-7.912 235.092-114.033 240.1-245.602z" fill="#02a082"/><g><g><path d="m203.49 335.74-65.25-49.05c-14.399-10.824-34.846-7.93-45.676 6.465-10.836 14.404-7.939 34.865 6.47 45.694l55.611 41.796c19.029 14.316 42.197 22.057 66.01 22.057h174.141v-65.407z" fill="#773600"/><path d="m394.797 342.431v-34.732l-32.093-.266c-11.532-.096-22.89-2.825-33.206-7.98-5.781-2.889-12.156-4.393-18.618-4.393h-94.277c-13.081 0-23.686 10.604-23.686 23.686 0 13.081 10.604 23.686 23.686 23.686h178.194z" fill="#91410a"/><path d="m345.384 280.142h80.604v140.407h-80.604z" fill="#fcfcfc"/><path d="m345.386 342.429h80.605v78.119h-80.605z" fill="#ffefc7"/></g><g><path d="m308.509 170.26 65.25 49.05c14.399 10.824 34.846 7.93 45.676-6.465 10.836-14.404 7.939-34.865-6.47-45.695l-55.611-41.796c-19.029-14.316-42.197-22.057-66.01-22.057h-174.141v65.407z" fill="#ffdba9"/><path d="m117.203 163.569v34.732l32.093.266c11.532.096 22.89 2.825 33.206 7.98 5.781 2.889 12.156 4.393 18.618 4.393h94.277c13.081 0 23.686-10.604 23.686-23.686 0-13.081-10.604-23.686-23.686-23.686h-178.194z" fill="#fcc78d"/><path d="m86.012 85.451h80.604v140.407h-80.604z" fill="#ffefc7" transform="matrix(-1 0 0 -1 252.629 311.31)"/><path d="m86.009 85.452h80.605v78.119h-80.605z" fill="#fcfcfc"/></g></g></g></svg>