<svg id="Capa_1" enable-background="new 0 0 512 512" height="512" viewBox="0 0 512 512" width="512" xmlns="http://www.w3.org/2000/svg"><g><path d="m62.694 347.301v98.092c0 7.72 6.259 13.979 13.979 13.979 7.336 0 13.424-5.671 13.944-12.988l7.044-99.084h-34.967z" fill="#596c76"/><path d="m414.339 347.301 7.044 99.084c.52 7.317 6.608 12.988 13.944 12.988 7.72 0 13.979-6.259 13.979-13.979v-98.092h-34.967z" fill="#596c76"/><path d="m414.34 347.301 3.113 43.803h31.853v-43.803z" fill="#465a61"/><g><path d="m62.694 347.301v43.803h31.853l3.114-43.803z" fill="#465a61"/></g><path d="m480.653 271.026h-224.653v-190.583c0-15.362 12.453-27.815 27.815-27.815h169.023c15.362 0 27.815 12.453 27.815 27.815z" fill="#01998d"/><path d="m452.838 52.628h-40.883c15.362 0 27.815 12.453 27.815 27.815v190.583h40.883v-190.583c0-15.362-12.453-27.815-27.815-27.815z" fill="#008b81"/><path d="m256.037 271.026h-224.653v-190.583c0-15.362 12.453-27.815 27.815-27.815h169.023c15.362 0 27.815 12.453 27.815 27.815z" fill="#01998d"/><path d="m449.306 187.665v101.241c0 5.69-4.612 10.302-10.302 10.302h-366.008c-5.69 0-10.302-4.612-10.302-10.302v-101.241c0-8.534-6.918-15.453-15.453-15.453h-31.788c-8.535 0-15.453 6.919-15.453 15.453v143.331c0 17.069 13.837 30.905 30.905 30.905h450.189c17.069 0 30.905-13.837 30.905-30.905v-143.331c0-8.534-6.918-15.453-15.453-15.453h-31.788c-8.533 0-15.452 6.919-15.452 15.453z" fill="#0ab69f"/><g><path d="m496.547 172.212h-31.347c8.534 0 15.453 6.919 15.453 15.453v143.331c0 17.069-13.837 30.905-30.905 30.905h31.347c17.069 0 30.905-13.837 30.905-30.905v-143.331c0-8.534-6.918-15.453-15.453-15.453z" fill="#01998d"/></g><path d="m256 299.208h-213.476c-6.133 0-11.104-4.971-11.104-11.104v-44.612c0-6.133 4.971-11.104 11.104-11.104h202.372c6.133 0 11.104 4.971 11.104 11.104z" fill="#008b81"/><path d="m256 299.208h213.475c6.133 0 11.104-4.971 11.104-11.104v-44.612c0-6.133-4.971-11.104-11.104-11.104h-202.371c-6.133 0-11.104 4.971-11.104 11.104z" fill="#008b81"/><g fill="#037e73"><path d="m469.476 232.388h-29.202c6.133 0 11.104 4.971 11.104 11.104v44.612c0 6.133-4.971 11.104-11.104 11.104h29.202c6.133 0 11.104-4.971 11.104-11.104v-44.612c-.001-6.133-4.972-11.104-11.104-11.104z"/><path d="m244.896 232.388h-29.202c6.133 0 11.104 4.971 11.104 11.104v55.716h29.202v-55.716c0-6.133-4.971-11.104-11.104-11.104z"/></g></g></svg>